<?xml version="1.0" encoding="UTF-8" standalone="no"?><svg xmlns="http://www.w3.org/2000/svg" xmlns:xlink="http://www.w3.org/1999/xlink" contentScriptType="application/ecmascript" contentStyleType="text/css" height="322px" preserveAspectRatio="none" style="width:751px;height:322px;" version="1.1" viewBox="0 0 751 322" width="751px" zoomAndPan="magnify"><defs><filter height="300%" id="f1thzitt32vlrb" width="300%" x="-1" y="-1"><feGaussianBlur result="blurOut" stdDeviation="2.0"/><feColorMatrix in="blurOut" result="blurOut2" type="matrix" values="0 0 0 0 0 0 0 0 0 0 0 0 0 0 0 0 0 0 .4 0"/><feOffset dx="4.0" dy="4.0" in="blurOut2" result="blurOut3"/><feBlend in="SourceGraphic" in2="blurOut3" mode="normal"/></filter></defs><g><!--cluster Group A--><polygon fill="#FFFFFF" filter="url(#f1thzitt32vlrb)" points="341.5,114,404.5,114,411.5,137.6094,567.5,137.6094,567.5,204,341.5,204,341.5,114" style="stroke: #000000; stroke-width: 1.5;"/><line style="stroke: #000000; stroke-width: 1.5;" x1="341.5" x2="411.5" y1="137.6094" y2="137.6094"/><text fill="#000000" font-family="sans-serif" font-size="14" font-weight="bold" lengthAdjust="spacingAndGlyphs" textLength="57" x="345.5" y="130.5332">Group A</text><!--cluster Group B--><polygon fill="#FFFFFF" filter="url(#f1thzitt32vlrb)" points="91.5,114,155.5,114,162.5,137.6094,317.5,137.6094,317.5,204,91.5,204,91.5,114" style="stroke: #000000; stroke-width: 1.5;"/><line style="stroke: #000000; stroke-width: 1.5;" x1="91.5" x2="162.5" y1="137.6094" y2="137.6094"/><text fill="#000000" font-family="sans-serif" font-size="14" font-weight="bold" lengthAdjust="spacingAndGlyphs" textLength="58" x="95.5" y="130.5332">Group B</text><!--entity Service 2--><rect fill="#FEFECE" filter="url(#f1thzitt32vlrb)" height="37.6094" style="stroke: #A80036; stroke-width: 1.5;" width="79" x="358" y="150"/><rect fill="#FEFECE" height="5" style="stroke: #A80036; stroke-width: 1.5;" width="10" x="353" y="155"/><rect fill="#FEFECE" height="5" style="stroke: #A80036; stroke-width: 1.5;" width="10" x="353" y="177.6094"/><text fill="#000000" font-family="sans-serif" font-size="14" lengthAdjust="spacingAndGlyphs" textLength="59" x="368" y="174.5332">Service 2</text><!--entity Service 1--><rect fill="#FEFECE" filter="url(#f1thzitt32vlrb)" height="37.6094" style="stroke: #A80036; stroke-width: 1.5;" width="79" x="472" y="150"/><rect fill="#FEFECE" height="5" style="stroke: #A80036; stroke-width: 1.5;" width="10" x="467" y="155"/><rect fill="#FEFECE" height="5" style="stroke: #A80036; stroke-width: 1.5;" width="10" x="467" y="177.6094"/><text fill="#000000" font-family="sans-serif" font-size="14" lengthAdjust="spacingAndGlyphs" textLength="59" x="482" y="174.5332">Service 1</text><!--entity Service 4--><rect fill="#FEFECE" filter="url(#f1thzitt32vlrb)" height="37.6094" style="stroke: #A80036; stroke-width: 1.5;" width="79" x="222" y="150"/><rect fill="#FEFECE" height="5" style="stroke: #A80036; stroke-width: 1.5;" width="10" x="217" y="155"/><rect fill="#FEFECE" height="5" style="stroke: #A80036; stroke-width: 1.5;" width="10" x="217" y="177.6094"/><text fill="#000000" font-family="sans-serif" font-size="14" lengthAdjust="spacingAndGlyphs" textLength="59" x="232" y="174.5332">Service 4</text><!--entity Service 3--><rect fill="#FEFECE" filter="url(#f1thzitt32vlrb)" height="37.6094" style="stroke: #A80036; stroke-width: 1.5;" width="79" x="108" y="150"/><rect fill="#FEFECE" height="5" style="stroke: #A80036; stroke-width: 1.5;" width="10" x="103" y="155"/><rect fill="#FEFECE" height="5" style="stroke: #A80036; stroke-width: 1.5;" width="10" x="103" y="177.6094"/><text fill="#000000" font-family="sans-serif" font-size="14" lengthAdjust="spacingAndGlyphs" textLength="59" x="118" y="174.5332">Service 3</text><!--entity Cluster 1--><rect fill="#FEFECE" filter="url(#f1thzitt32vlrb)" height="37.6094" style="stroke: #A80036; stroke-width: 1.5;" width="77" x="228" y="270.5"/><rect fill="#FEFECE" height="5" style="stroke: #A80036; stroke-width: 1.5;" width="10" x="223" y="275.5"/><rect fill="#FEFECE" height="5" style="stroke: #A80036; stroke-width: 1.5;" width="10" x="223" y="298.1094"/><text fill="#000000" font-family="sans-serif" font-size="14" lengthAdjust="spacingAndGlyphs" textLength="57" x="238" y="295.0332">Cluster 1</text><!--entity Cluster 2--><rect fill="#FEFECE" filter="url(#f1thzitt32vlrb)" height="37.6094" style="stroke: #A80036; stroke-width: 1.5;" width="77" x="348" y="270.5"/><rect fill="#FEFECE" height="5" style="stroke: #A80036; stroke-width: 1.5;" width="10" x="343" y="275.5"/><rect fill="#FEFECE" height="5" style="stroke: #A80036; stroke-width: 1.5;" width="10" x="343" y="298.1094"/><text fill="#000000" font-family="sans-serif" font-size="14" lengthAdjust="spacingAndGlyphs" textLength="57" x="358" y="295.0332">Cluster 2</text><!--entity Client x--><rect fill="#FEFECE" filter="url(#f1thzitt32vlrb)" height="37.6094" style="stroke: #A80036; stroke-width: 1.5;" width="66" x="600.5" y="150"/><rect fill="#FEFECE" height="5" style="stroke: #A80036; stroke-width: 1.5;" width="10" x="595.5" y="155"/><rect fill="#FEFECE" height="5" style="stroke: #A80036; stroke-width: 1.5;" width="10" x="595.5" y="177.6094"/><text fill="#000000" font-family="sans-serif" font-size="14" lengthAdjust="spacingAndGlyphs" textLength="46" x="610.5" y="174.5332">Client x</text><!--entity Client y--><rect fill="#FEFECE" filter="url(#f1thzitt32vlrb)" height="37.6094" style="stroke: #A80036; stroke-width: 1.5;" width="67" x="6" y="150"/><rect fill="#FEFECE" height="5" style="stroke: #A80036; stroke-width: 1.5;" width="10" x="1" y="155"/><rect fill="#FEFECE" height="5" style="stroke: #A80036; stroke-width: 1.5;" width="10" x="1" y="177.6094"/><text fill="#000000" font-family="sans-serif" font-size="14" lengthAdjust="spacingAndGlyphs" textLength="47" x="16" y="174.5332">Client y</text><path d="M222,16 L222,58.7031 A0,0 0 0 0 222,58.7031 L370.778,58.7031 L393.678,149.67 L378.778,58.7031 L519,58.7031 A0,0 0 0 0 519,58.7031 L519,26 L509,16 L222,16 A0,0 0 0 0 222,16 " fill="#FBFB77" filter="url(#f1thzitt32vlrb)" style="stroke: #A80036; stroke-width: 1.0;"/><path d="M509,16 L509,26 L519,26 L509,16 " fill="#FBFB77" style="stroke: #A80036; stroke-width: 1.0;"/><text fill="#000000" font-family="sans-serif" font-size="13" lengthAdjust="spacingAndGlyphs" textLength="276" x="228" y="34.4951">The services nodes register, ping and unregister</text><text fill="#000000" font-family="sans-serif" font-size="13" lengthAdjust="spacingAndGlyphs" textLength="158" x="228" y="50.8467">on all known cluster nodes.</text><path d="M554,8 L554,67.0547 A0,0 0 0 0 554,67.0547 L639.615,67.0547 L635.335,149.725 L647.615,67.0547 L739,67.0547 A0,0 0 0 0 739,67.0547 L739,18 L729,8 L554,8 A0,0 0 0 0 554,8 " fill="#FBFB77" filter="url(#f1thzitt32vlrb)" style="stroke: #A80036; stroke-width: 1.0;"/><path d="M729,8 L729,18 L739,18 L729,8 " fill="#FBFB77" style="stroke: #A80036; stroke-width: 1.0;"/><text fill="#000000" font-family="sans-serif" font-size="13" lengthAdjust="spacingAndGlyphs" textLength="164" x="560" y="26.4951">The client requests a cluster</text><text fill="#000000" font-family="sans-serif" font-size="13" lengthAdjust="spacingAndGlyphs" textLength="159" x="560" y="42.8467">node to get a service list by</text><text fill="#000000" font-family="sans-serif" font-size="13" lengthAdjust="spacingAndGlyphs" textLength="102" x="560" y="59.1982">name, group, etc.</text><path d="M460.5,268 L460.5,285.5 L425.008,289.5 L460.5,293.5 L460.5,310.7031 A0,0 0 0 0 460.5,310.7031 L684.5,310.7031 A0,0 0 0 0 684.5,310.7031 L684.5,278 L674.5,268 L460.5,268 A0,0 0 0 0 460.5,268 " fill="#FBFB77" filter="url(#f1thzitt32vlrb)" style="stroke: #A80036; stroke-width: 1.0;"/><path d="M674.5,268 L674.5,278 L684.5,278 L674.5,268 " fill="#FBFB77" style="stroke: #A80036; stroke-width: 1.0;"/><text fill="#000000" font-family="sans-serif" font-size="13" lengthAdjust="spacingAndGlyphs" textLength="203" x="466.5" y="286.4951">The cluster nodes store information</text><text fill="#000000" font-family="sans-serif" font-size="13" lengthAdjust="spacingAndGlyphs" textLength="144" x="466.5" y="302.8467">about registered services</text><!--link Cluster 1 to Cluster 2--><path d="M310.712,289.5 C321.352,289.5 331.991,289.5 342.631,289.5 " fill="none" id="Cluster 1-Cluster 2" style="stroke: #A80036; stroke-width: 1.0;"/><polygon fill="#A80036" points="347.854,289.5,338.854,285.5,342.854,289.5,338.854,293.5,347.854,289.5" style="stroke: #A80036; stroke-width: 1.0;"/><polygon fill="#A80036" points="305.406,289.5,314.406,293.5,310.406,289.5,314.406,285.5,305.406,289.5" style="stroke: #A80036; stroke-width: 1.0;"/><!--link Service 2 to Cluster 1--><path d="M377.318,188.256 C353.883,209.455 315.266,244.387 290.364,266.913 " fill="none" id="Service 2-Cluster 1" style="stroke: #A80036; stroke-width: 1.0;"/><polygon fill="#A80036" points="286.49,270.4178,295.8478,267.3467,290.198,267.0636,290.4811,261.4139,286.49,270.4178" style="stroke: #A80036; stroke-width: 1.0;"/><!--link Service 2 to Cluster 2--><path d="M395.805,188.256 C393.886,208.932 390.754,242.6704 388.661,265.2221 " fill="none" id="Service 2-Cluster 2" style="stroke: #A80036; stroke-width: 1.0;"/><polygon fill="#A80036" points="388.179,270.4178,392.994,261.8262,388.6413,265.4392,385.0282,261.0865,388.179,270.4178" style="stroke: #A80036; stroke-width: 1.0;"/><!--link Service 1 to Cluster 1--><path d="M489.627,188.109 C479.365,196.072 466.725,205.15 454.5,212 C407.428,238.3757 349.406,260.5684 310.374,274.1455 " fill="none" id="Service 1-Cluster 1" style="stroke: #A80036; stroke-width: 1.0;"/><polygon fill="#A80036" points="305.234,275.9218,315.0468,276.7633,309.9598,274.2889,312.4342,269.2019,305.234,275.9218" style="stroke: #A80036; stroke-width: 1.0;"/><!--link Service 1 to Cluster 2--><path d="M505.776,188.265 C500.39,203.092 491.104,223.798 477.5,238 C464.247,251.8348 446.362,262.8725 429.955,271.0567 " fill="none" id="Service 1-Cluster 2" style="stroke: #A80036; stroke-width: 1.0;"/><polygon fill="#A80036" points="425.371,273.2894,435.2138,272.9434,429.8659,271.0994,431.7099,265.7516,425.371,273.2894" style="stroke: #A80036; stroke-width: 1.0;"/><!--link Service 4 to Cluster 1--><path d="M262.27,188.256 C263.143,208.932 264.566,242.6704 265.518,265.2221 " fill="none" id="Service 4-Cluster 1" style="stroke: #A80036; stroke-width: 1.0;"/><polygon fill="#A80036" points="265.737,270.4178,269.3539,261.2571,265.5261,265.4222,261.361,261.5945,265.737,270.4178" style="stroke: #A80036; stroke-width: 1.0;"/><!--link Service 4 to Cluster 2--><path d="M280.757,188.256 C303.119,209.455 339.967,244.387 363.729,266.913 " fill="none" id="Service 4-Cluster 2" style="stroke: #A80036; stroke-width: 1.0;"/><polygon fill="#A80036" points="367.426,270.4178,363.6464,261.323,363.7974,266.9779,358.1425,267.1288,367.426,270.4178" style="stroke: #A80036; stroke-width: 1.0;"/><!--link Service 3 to Cluster 1--><path d="M155.656,188.271 C162.82,202.907 174.306,223.3444 188.5,238 C199.592,249.4523 213.744,259.5885 226.941,267.7179 " fill="none" id="Service 3-Cluster 1" style="stroke: #A80036; stroke-width: 1.0;"/><polygon fill="#A80036" points="231.374,270.397,225.7397,262.319,227.0946,267.8112,221.6024,269.1661,231.374,270.397" style="stroke: #A80036; stroke-width: 1.0;"/><!--link Service 3 to Cluster 2--><path d="M169.41,188.044 C179.679,195.995 192.315,205.08 204.5,212 C249.71,237.674 305.243,259.7816 342.992,273.5351 " fill="none" id="Service 3-Cluster 2" style="stroke: #A80036; stroke-width: 1.0;"/><polygon fill="#A80036" points="347.967,275.3366,340.8673,268.5106,343.2659,273.6338,338.1427,276.0324,347.967,275.3366" style="stroke: #A80036; stroke-width: 1.0;"/><!--link Client x to Cluster 2--><path d="M607.035,188.028 C595.173,195.797 580.869,204.743 567.5,212 C542.839,225.3874 475.131,253.1589 429.883,271.2999 " fill="none" id="Client x-Cluster 2" style="stroke: #A80036; stroke-width: 1.0; stroke-dasharray: 7.0,7.0;"/><polygon fill="#A80036" points="425.03,273.2434,434.872,273.6113,429.6717,271.3848,431.8983,266.1846,425.03,273.2434" style="stroke: #A80036; stroke-width: 1.0;"/><text fill="#000000" font-family="sans-serif" font-size="13" lengthAdjust="spacingAndGlyphs" textLength="87" x="550.5" y="234.4951">service request</text><!--link Client y to Cluster 1--><path d="M45.4652,188.3 C51.4345,203.772 62.1105,225.3784 78.5,238 C120.483,270.3316 181.563,282.0025 222.598,286.1925 " fill="none" id="Client y-Cluster 1" style="stroke: #A80036; stroke-width: 1.0; stroke-dasharray: 7.0,7.0;"/><polygon fill="#A80036" points="227.75,286.6901,219.1756,281.8446,222.7731,286.2101,218.4076,289.8076,227.75,286.6901" style="stroke: #A80036; stroke-width: 1.0;"/><text fill="#000000" font-family="sans-serif" font-size="13" lengthAdjust="spacingAndGlyphs" textLength="87" x="79.5" y="234.4951">service request</text><!--
@startuml
[Cluster 1] <-> [Cluster 2]

package "Group A" {
  [Service 2] - -> [Cluster 1]
  [Service 2] - -> [Cluster 2]
  [Service 1] - -> [Cluster 1]
  [Service 1] - -> [Cluster 2]
}

package "Group B" {
  [Service 4] - -> [Cluster 1]
  [Service 4] - -> [Cluster 2]
  [Service 3] - -> [Cluster 1]
  [Service 3] - -> [Cluster 2]
}

[Client x] ..> [Cluster 2] : service request
[Client y] ..> [Cluster 1] : service request

note top of [Service 2]
  The services nodes register, ping and unregister
  on all known cluster nodes.
end note

note top of [Client x]
  The client requests a cluster
  node to get a service list by
  name, group, etc.
end note

note right of [Cluster 2]
  The cluster nodes store information
  about registered services
end note

@enduml

PlantUML version 1.2018.01(Sun Jan 28 19:08:22 CET 2018)
(APACHE source distribution)
Java Runtime: Java(TM) SE Runtime Environment
JVM: Java HotSpot(TM) 64-Bit Server VM
Java Version: 1.8.0_161-b12
Operating System: Windows 7
OS Version: 6.1
Default Encoding: UTF-8
Language: fr
Country: FR
--></g></svg>